<?xml version="1.0" standalone="no"?>
<!DOCTYPE svg PUBLIC "-//W3C//DTD SVG 20010904//EN"
 "http://www.w3.org/TR/2001/REC-SVG-20010904/DTD/svg10.dtd">
<svg version="1.0" xmlns="http://www.w3.org/2000/svg"
 width="1024.000000pt" height="1024.000000pt" viewBox="0 0 1024.000000 1024.000000"
 preserveAspectRatio="xMidYMid meet">

<g transform="translate(0.000000,1024.000000) scale(0.100000,-0.100000)"
fill="#000000" stroke="none">
<path d="M0 5120 l0 -5120 5120 0 5120 0 0 5120 0 5120 -5120 0 -5120 0 0
-5120z m6716 5085 c8 -20 -21 -137 -56 -226 -38 -97 -57 -109 -181 -109 -124
0 -154 6 -170 36 -10 19 -10 33 -1 66 46 172 62 230 67 239 4 5 79 9 171 9
137 0 166 -3 170 -15z m849 6 c43 -9 43 -37 -1 -117 -21 -38 -50 -94 -66 -125
-41 -83 -56 -93 -151 -100 -100 -8 -183 2 -204 24 -14 14 -15 21 -3 59 7 24
24 67 37 97 14 30 34 74 44 99 30 69 37 71 184 70 72 0 144 -3 160 -7z m-3437
-1063 l2 -238 -55 0 c-52 0 -56 2 -50 20 6 19 4 19 -31 -5 -67 -46 -154 -25
-202 48 -23 34 -27 51 -26 107 0 74 20 118 67 154 40 30 115 29 156 -2 l31
-23 0 84 c0 46 3 87 7 91 4 4 28 6 53 4 l45 -3 3 -237z m-489 188 c22 -18 37
-36 34 -40 -14 -13 -58 -5 -80 16 l-23 21 -24 -22 c-19 -18 -31 -22 -53 -16
l-28 7 39 34 c51 44 82 44 135 0z m-2594 5 c22 -10 49 -28 59 -40 20 -22 20
-22 -12 -54 -28 -27 -35 -30 -50 -19 -46 33 -85 44 -122 33 -79 -23 -116 -108
-81 -186 32 -73 104 -94 183 -54 l41 21 30 -30 c37 -37 31 -48 -46 -87 -80
-40 -159 -32 -239 24 -111 78 -119 251 -15 349 63 61 173 80 252 43z m5163 -6
c46 -19 46 -20 27 -82 -7 -21 -5 -22 30 -12 20 6 44 7 53 3 22 -9 57 -7 112 7
112 28 210 -47 210 -161 l0 -40 -115 0 c-126 0 -141 -8 -89 -49 32 -25 55 -26
96 -5 30 16 31 15 60 -14 l30 -29 -53 -27 c-83 -41 -167 -30 -230 30 l-27 26
-17 -51 c-9 -27 -25 -61 -36 -75 -19 -24 -26 -26 -109 -26 -95 0 -127 14 -117
51 3 11 0 19 -6 19 -15 0 -137 57 -137 64 0 3 10 25 22 50 l21 44 36 -24 c42
-27 118 -44 146 -33 11 4 16 8 10 8 -5 1 -4 5 4 10 23 15 -7 37 -88 67 -97 36
-125 69 -119 141 5 59 30 95 83 120 39 18 145 11 203 -12z m-2968 -39 c0 -46
9 -56 56 -56 21 0 24 -5 24 -35 0 -34 -1 -35 -40 -35 l-41 0 3 -87 3 -88 33 0
c29 0 34 -4 42 -35 5 -19 6 -38 1 -43 -17 -17 -86 -19 -124 -3 -51 21 -67 62
-67 171 0 78 -2 85 -20 85 -17 0 -20 7 -20 40 0 36 2 40 26 40 23 0 25 3 24
38 -1 20 -2 40 -1 45 1 4 24 7 51 7 l50 0 0 -44z m-1868 -46 c44 -13 93 -52
113 -91 19 -36 19 -122 1 -157 -48 -91 -149 -125 -242 -83 -145 66 -136 279
15 325 57 18 67 18 113 6z m451 -4 c66 -27 72 -43 75 -197 l4 -139 -54 0 -55
0 -2 107 c-3 127 -9 143 -56 143 -54 0 -65 -26 -65 -147 l0 -103 -55 0 -55 0
0 170 0 170 50 0 c43 0 50 -3 50 -20 0 -24 4 -25 30 -2 38 32 85 39 133 18z
m421 0 c53 -22 66 -63 66 -210 l0 -126 -50 0 -50 0 0 98 c0 119 -11 146 -62
150 -56 5 -68 -20 -68 -145 l0 -103 -55 0 -55 0 0 170 0 170 56 0 c34 0 53 -4
49 -10 -12 -19 6 -32 24 -16 39 36 93 44 145 22z m392 -17 c39 -24 74 -91 74
-142 l0 -36 -121 -3 -121 -3 21 -27 c29 -36 69 -43 115 -22 36 18 37 17 58 -3
28 -29 18 -50 -38 -75 -89 -39 -200 -3 -237 75 -36 74 -9 194 51 233 58 38
140 39 198 3z m369 8 c30 -14 55 -39 55 -52 0 -7 -15 -20 -34 -30 -31 -17 -35
-17 -57 -2 -41 29 -82 18 -107 -30 -17 -32 -15 -64 8 -100 23 -38 63 -44 110
-17 26 16 29 16 54 -2 33 -24 30 -42 -13 -71 -85 -58 -203 -32 -254 54 -26 46
-26 127 2 181 39 76 154 110 236 69z m619 -5 c45 -26 56 -56 56 -153 0 -69 3
-88 16 -93 11 -4 14 -17 12 -43 l-3 -38 -49 1 c-33 0 -52 6 -61 17 -16 22 -20
21 -55 -4 -37 -28 -110 -22 -145 11 -50 47 -40 136 17 166 16 8 58 18 93 21
55 5 65 9 65 25 0 31 -46 42 -103 23 -54 -18 -62 -14 -72 27 -5 20 -2 29 14
37 62 34 161 35 215 3z m994 1 c52 -25 58 -46 18 -76 -28 -22 -35 -24 -47 -12
-8 8 -29 17 -46 21 -26 5 -37 1 -57 -19 -34 -34 -36 -102 -6 -135 25 -26 76
-29 102 -5 17 15 20 15 53 -3 19 -10 35 -21 35 -24 0 -14 -45 -53 -76 -66
-191 -80 -338 185 -172 309 51 38 127 42 196 10z m359 -5 c117 -71 99 -259
-30 -313 -156 -65 -307 88 -238 241 19 43 62 80 109 94 39 13 122 1 159 -22z
m396 19 c18 -8 38 -21 46 -30 12 -15 16 -15 42 8 60 50 154 41 190 -19 16 -26
19 -51 19 -163 l0 -133 -50 0 -50 0 0 103 c0 118 -12 147 -60 147 -46 0 -58
-29 -62 -147 l-3 -103 -52 0 -53 0 0 103 c0 118 -12 147 -60 147 -48 0 -60
-29 -60 -147 l0 -103 -55 0 -55 0 0 170 0 170 55 0 c44 0 55 -3 55 -16 0 -13
3 -14 14 -5 35 29 94 36 139 18z m1664 -85 c-4 -53 -7 -136 -7 -183 0 -73 -3
-91 -22 -119 -35 -51 -70 -72 -135 -80 -32 -4 -46 -8 -30 -9 25 -1 27 -4 21
-28 -15 -69 -56 -150 -85 -167 -32 -19 -174 -22 -196 -4 -21 17 -15 64 16 131
33 72 66 110 89 103 59 -16 67 -16 35 1 -18 9 -33 19 -33 22 1 14 29 95 29 84
1 -7 4 -12 9 -11 4 0 24 -6 44 -15 21 -10 52 -17 70 -17 39 0 78 34 78 68 l0
24 -36 -22 c-61 -38 -143 -15 -184 52 -53 88 -21 217 63 253 18 8 78 13 155
13 l125 0 -6 -96z m693 48 c0 -49 0 -49 -41 -60 -53 -15 -69 -51 -69 -160 l0
-80 -50 0 -50 0 0 170 0 170 50 0 c48 0 50 -1 50 -27 l0 -28 18 22 c16 21 54
41 80 42 8 1 12 -15 12 -49z m297 25 c37 -25 53 -74 53 -164 0 -54 4 -80 13
-84 7 -2 12 -21 12 -43 l0 -39 -49 1 c-40 0 -53 5 -64 23 l-15 22 -24 -23
c-20 -18 -36 -23 -80 -23 -49 0 -58 3 -84 33 -21 24 -29 42 -29 71 0 73 56
111 163 111 55 0 63 19 21 47 -22 14 -32 15 -67 4 -65 -19 -67 -18 -82 16
l-14 32 42 15 c23 8 51 17 62 20 35 8 117 -3 142 -19z m625 -2 c38 -33 48 -76
48 -203 l0 -120 -49 0 -48 0 -5 109 c-5 123 -13 141 -64 141 -53 0 -64 -26
-64 -147 l0 -103 -55 0 -55 0 0 170 0 170 49 0 c42 0 49 -3 54 -22 l6 -22 23
21 c13 12 32 23 43 26 35 10 96 -1 117 -20z m341 13 c42 -15 77 -43 77 -60 0
-6 -15 -21 -33 -32 -32 -21 -33 -21 -56 -3 -55 44 -121 3 -121 -75 0 -36 5
-48 26 -65 31 -25 76 -27 94 -6 18 21 35 19 67 -10 l28 -25 -28 -25 c-65 -58
-172 -58 -237 1 -147 133 -4 366 183 300z m368 -11 c42 -22 59 -69 59 -164 0
-61 3 -80 15 -85 17 -6 21 -71 4 -81 -6 -4 -31 -4 -56 0 -33 5 -47 12 -50 26
-7 24 -12 24 -39 -2 -35 -33 -101 -36 -144 -7 -43 29 -57 65 -44 114 13 54 49
76 133 82 76 5 86 15 51 47 -17 16 -26 17 -63 8 -23 -6 -49 -13 -58 -17 -15
-7 -39 28 -39 58 0 11 36 26 95 40 33 8 103 -3 136 -19z m-2153 -100 c2 -98 5
-112 23 -127 30 -25 54 -22 78 8 18 23 21 41 21 130 l0 104 55 0 55 0 0 -170
0 -170 -55 0 c-50 0 -55 2 -55 22 l0 21 -24 -22 c-32 -30 -102 -39 -143 -18
-51 27 -63 68 -63 212 l0 126 53 -3 52 -3 3 -110z m1072 -55 l0 -170 -55 0
-55 0 2 170 3 170 53 0 52 0 0 -170z m-2065 -282 c31 -14 33 -45 5 -139 -20
-65 -22 -68 -65 -85 -49 -18 -135 -15 -175 6 -21 11 -22 17 -17 75 8 79 29
133 59 145 33 13 163 12 193 -2z m-185 -569 c0 -16 3 -28 8 -27 4 1 22 -1 40
-5 38 -8 52 -36 52 -103 0 -64 -18 -54 -22 12 -6 104 -67 97 -78 -9 -4 -42 -8
-51 -22 -49 -10 1 -34 -15 -55 -38 -31 -33 -45 -40 -75 -40 -40 0 -56 17 -60
63 -2 22 -5 23 -25 14 -17 -7 -28 -6 -48 7 -30 20 -27 33 3 17 14 -7 24 -7 38
4 22 15 18 20 -28 43 -43 22 -47 47 -11 65 32 17 83 11 83 -9 0 -16 -16 -19
-25 -4 -9 15 -41 12 -55 -5 -17 -20 -4 -32 39 -37 35 -3 40 1 62 60 15 43 44
61 105 69 27 3 51 7 53 9 10 9 21 -10 21 -37z m530 1 c0 -18 6 -33 15 -36 11
-5 15 -23 15 -76 0 -55 -3 -68 -13 -60 -8 7 -18 6 -32 -4 -10 -8 -27 -11 -38
-8 -13 4 -28 -4 -52 -30 -35 -39 -72 -46 -120 -24 -27 12 -29 35 -1 30 21 -4
20 0 -4 45 -11 21 -20 46 -20 56 0 31 39 77 65 77 16 0 23 5 20 13 -9 22 46
46 108 47 57 0 57 0 57 -30z m639 -77 c0 -60 -3 -102 -6 -95 -4 10 -8 10 -18
2 -23 -19 -76 -7 -98 22 -27 36 -14 87 28 107 25 12 33 12 57 -2 l28 -16 0 44
c0 25 2 45 5 45 3 0 5 -48 4 -107z m-4356 90 l-33 -4 0 -89 c0 -49 -4 -92 -10
-95 -6 -4 -10 27 -10 84 l0 91 -35 0 c-19 0 -35 5 -35 10 0 6 31 9 78 8 42 0
62 -3 45 -5z m4187 -93 c0 -60 -4 -100 -10 -100 -5 0 -10 5 -10 10 0 7 -6 7
-19 0 -51 -27 -101 1 -101 57 0 53 15 73 55 73 18 0 37 -5 40 -10 12 -19 25 1
25 36 0 19 5 34 10 34 6 0 10 -40 10 -100z m-2540 80 c0 -5 -4 -10 -10 -10 -5
0 -10 5 -10 10 0 6 5 10 10 10 6 0 10 -4 10 -10z m763 -41 c22 -2 22 -2 0 -6
-20 -4 -23 -11 -23 -53 0 -39 4 -52 22 -64 22 -16 22 -16 1 -16 -31 0 -45 24
-42 74 2 25 0 48 -3 52 -7 6 -4 18 9 52 5 13 8 11 11 -10 2 -20 9 -28 25 -29z
m-533 21 c0 -14 7 -20 23 -21 l22 -2 -22 -4 c-20 -4 -23 -10 -23 -57 0 -45 3
-55 23 -64 21 -11 21 -12 -8 -9 -30 2 -30 3 -33 65 -2 34 -7 62 -12 62 -4 0
-3 11 3 25 14 30 27 32 27 5z m-1408 -33 c4 -6 13 -4 23 6 41 42 85 1 85 -78
0 -72 -18 -71 -22 1 -4 68 -24 90 -57 60 -16 -14 -21 -31 -21 -68 0 -71 -19
-59 -22 15 -3 54 -6 62 -24 65 -35 5 -54 -23 -54 -79 0 -31 -4 -48 -10 -44
-13 8 -13 105 0 125 5 8 10 12 10 8 0 -4 10 -4 22 1 25 9 60 3 70 -12z m628 3
c15 -15 20 -33 20 -75 0 -76 -18 -70 -22 8 -3 56 -5 62 -26 65 -38 6 -52 -15
-52 -74 0 -30 -4 -54 -10 -54 -6 0 -10 30 -10 71 0 53 3 70 13 66 6 -2 21 -1
32 4 30 11 33 11 55 -11z m248 -8 c17 -23 15 -82 -5 -104 -18 -20 -63 -24 -81
-6 -9 9 -12 4 -12 -25 0 -20 -4 -37 -10 -37 -6 0 -10 38 -10 95 0 60 4 95 11
95 5 0 8 -4 4 -10 -3 -5 7 -3 22 5 31 16 61 11 81 -13z m144 4 c4 -6 8 -38 8
-71 0 -37 -4 -55 -9 -46 -6 9 -11 10 -15 2 -8 -13 -55 -14 -75 -2 -13 9 -19
56 -8 68 4 3 25 6 47 7 35 1 40 4 38 21 -2 16 -10 20 -42 19 -34 -1 -38 0 -23
11 19 14 68 8 79 -9z m122 16 c2 -4 -9 -14 -25 -21 -27 -12 -29 -17 -29 -67 0
-30 -4 -54 -10 -54 -6 0 -10 30 -10 70 0 40 4 70 10 70 6 0 10 -5 10 -11 0 -6
7 -3 16 5 17 18 30 20 38 8z m172 -13 c6 -5 13 -6 17 -3 3 3 9 -15 12 -41 6
-39 4 -49 -13 -66 -44 -40 -122 -11 -122 47 0 65 58 99 106 63z m525 -1 c9
-15 21 -120 14 -127 -3 -3 -10 1 -14 8 -6 9 -11 10 -15 2 -9 -15 -59 -14 -74
1 -7 7 -12 22 -12 35 0 25 31 43 76 43 22 0 23 2 13 21 -8 16 -18 20 -40 17
-29 -5 -40 6 -16 16 16 7 60 -3 68 -16z m1683 6 c18 -18 23 -134 6 -134 -6 0
-10 27 -10 60 0 67 -13 81 -56 62 -21 -10 -24 -18 -24 -67 0 -76 -18 -70 -22
8 -3 55 -5 62 -25 65 -30 4 -53 -33 -53 -85 0 -24 -4 -43 -9 -43 -5 0 -10 31
-10 68 l0 69 54 2 c29 1 56 -3 60 -9 4 -7 14 -5 28 5 27 19 42 19 61 -1z m510
-5 c14 -11 26 -31 26 -43 0 -21 -3 -22 -54 -18 -57 5 -73 -5 -53 -32 14 -19
51 -24 80 -12 10 5 17 4 17 -3 0 -15 -44 -25 -76 -17 -32 8 -60 67 -44 96 12
22 49 50 66 50 6 0 23 -9 38 -21z m150 1 c5 -5 -9 -8 -34 -7 -60 3 -63 -18 -6
-43 47 -20 59 -43 34 -68 -18 -18 -73 -15 -89 5 -13 15 -12 16 6 8 36 -15 69
-11 73 8 3 13 -7 22 -37 34 -31 12 -41 21 -41 39 0 13 8 28 18 33 18 11 61 6
76 -9z m-4500 -6 c9 -8 16 -24 16 -35 0 -16 -7 -19 -37 -18 -28 1 -31 3 -13 6
37 7 43 17 21 37 -14 13 -28 16 -46 12 -30 -8 -44 -34 -24 -47 12 -8 12 -10
-1 -19 -13 -8 -12 -12 7 -31 18 -19 25 -20 53 -10 28 9 31 9 20 -4 -18 -22
-66 -18 -90 7 -24 26 -26 75 -3 100 20 22 76 24 97 2z m66 -39 c0 -43 4 -56
19 -64 29 -16 55 10 67 71 l12 53 1 -74 c1 -62 -1 -72 -13 -62 -10 8 -16 9
-21 1 -9 -15 -51 -12 -69 6 -18 17 -23 124 -6 124 6 0 10 -25 10 -55z m575 35
c25 -28 22 -80 -7 -103 -17 -14 -32 -17 -60 -13 -35 6 -37 5 -41 -26 -2 -18
-5 10 -5 63 l-2 96 48 2 c37 1 53 -3 67 -19z m159 -2 c44 -62 -12 -137 -83
-112 -36 13 -51 72 -27 108 22 35 87 37 110 4z m696 -48 c0 -40 -4 -70 -10
-70 -6 0 -10 30 -10 70 0 40 4 70 10 70 6 0 10 -30 10 -70z m448 58 c15 -19
26 -128 13 -128 -6 0 -11 5 -11 12 0 9 -3 9 -12 0 -17 -17 -63 -15 -78 2 -6 8
-10 25 -8 38 2 18 12 25 46 32 30 7 42 14 40 25 -3 11 -15 16 -41 15 -20 -1
-34 3 -31 7 8 14 70 11 82 -3z m476 -10 c54 -76 -46 -164 -103 -92 -42 53 -16
114 49 114 29 0 43 -6 54 -22z m141 -28 c9 -27 20 -52 25 -55 5 -3 17 18 28
47 11 29 25 54 31 56 12 4 9 -6 -28 -90 -11 -27 -24 -48 -30 -48 -5 0 -21 29
-35 65 -29 73 -30 75 -17 75 5 0 17 -22 26 -50z m134 -2 c-1 -87 -17 -105 -18
-20 -1 42 3 72 9 72 6 0 10 -24 9 -52z m585 30 c27 -38 20 -48 -33 -48 -57 0
-71 -13 -45 -41 17 -19 24 -20 69 -4 20 7 20 6 1 -9 -65 -53 -145 43 -89 107
23 25 78 22 97 -5z m1266 -110 c0 -7 -5 -20 -10 -28 -8 -12 -10 -9 -10 13 0
15 5 27 10 27 6 0 10 -6 10 -12z m-2557 -275 c5 -9 3 -13 -7 -13 -14 0 -16 16
-14 103 l2 102 5 -90 c3 -49 10 -96 14 -102z m377 87 c0 -60 -4 -100 -10 -100
-5 0 -10 5 -10 12 0 9 -3 9 -12 0 -22 -22 -76 -15 -94 13 -17 27 -14 76 7 102
14 16 71 17 87 1 9 -9 12 -3 12 30 0 23 5 42 10 42 6 0 10 -40 10 -100z m1450
6 c0 -66 4 -96 13 -100 6 -3 3 -5 -8 -3 -18 2 -20 11 -23 100 -2 62 1 97 8 97
6 0 10 -36 10 -94z m-840 74 c0 -5 -7 -10 -15 -10 -8 0 -15 5 -15 10 0 6 7 10
15 10 8 0 15 -4 15 -10z m910 6 c0 -3 -4 -8 -10 -11 -5 -3 -10 -1 -10 4 0 6 5
11 10 11 6 0 10 -2 10 -4z m-3766 -47 c19 -2 19 -2 -2 -6 -21 -4 -23 -9 -20
-61 2 -47 6 -57 21 -56 9 1 17 -3 17 -8 0 -5 -12 -8 -27 -6 -26 3 -28 6 -31
58 -2 30 -7 59 -11 63 -5 5 -3 19 3 33 11 23 11 23 20 4 5 -11 18 -21 30 -21z
m753 -11 c21 -17 25 -65 8 -97 -12 -25 -22 -31 -48 -31 -18 0 -38 5 -45 12 -9
9 -12 3 -12 -30 0 -23 -4 -42 -10 -42 -6 0 -10 41 -10 103 0 56 4 97 8 90 5
-8 13 -8 32 2 25 14 54 11 77 -7z m822 6 c2 -2 -5 -4 -16 -4 -25 0 -33 -18
-33 -70 0 -37 19 -58 41 -44 5 3 9 0 9 -6 0 -6 -12 -10 -27 -8 -26 3 -28 6
-31 58 -2 30 -8 60 -13 66 -7 8 -6 14 3 17 12 5 58 -2 67 -9z m1120 -68 c-3
-65 -8 -89 -23 -105 -19 -21 -58 -27 -90 -15 -30 12 -16 20 32 20 44 -1 47 1
50 27 3 26 2 27 -17 15 -28 -17 -72 0 -89 34 -13 28 -2 75 21 90 18 12 62 9
75 -4 9 -9 13 -7 18 5 3 9 11 17 16 17 6 0 9 -33 7 -84z m61 74 c0 -6 8 -5 20
2 31 20 38 -2 7 -24 -23 -17 -27 -27 -27 -69 0 -27 -4 -49 -10 -49 -5 0 -10 6
-11 13 0 6 -3 40 -5 75 -4 51 -2 62 11 62 8 0 15 -5 15 -10z m500 -5 c13 -16
24 -109 16 -132 -4 -8 -11 -11 -18 -7 -7 5 -29 7 -50 5 -32 -2 -39 1 -49 23
-17 36 11 66 59 66 29 0 33 2 22 15 -7 8 -25 15 -41 15 -32 0 -39 16 -11 23
35 9 60 7 72 -8z m502 -83 c2 -28 0 -52 -4 -52 -5 0 -7 35 -7 78 2 78 6 69 11
-26z m-3602 68 c44 -44 11 -120 -52 -120 -63 0 -89 61 -47 114 25 32 70 35 99
6z m201 3 c12 -15 12 -16 -6 -9 -37 16 -60 12 -60 -9 0 -14 10 -23 35 -31 63
-20 46 -79 -21 -72 -18 2 -34 8 -36 15 -3 9 3 9 26 0 23 -8 34 -8 42 0 18 18
4 39 -29 46 -32 6 -46 29 -37 58 8 25 67 26 86 2z m155 -18 c7 -19 14 -37 14
-40 0 -3 -30 -5 -67 -5 l-68 0 27 -27 c24 -24 30 -25 54 -14 29 13 48 6 24 -9
-24 -15 -72 -12 -92 7 -22 20 -24 71 -2 101 11 16 25 22 55 22 36 0 41 -3 55
-35z m68 24 c4 6 14 11 23 11 11 0 8 -6 -11 -21 -22 -17 -26 -28 -26 -70 0
-31 -4 -48 -10 -44 -11 7 -13 77 -3 113 4 16 8 20 13 12 5 -9 9 -9 14 -1z
m330 -11 c9 -12 16 -31 16 -41 0 -17 -6 -19 -55 -15 -58 5 -67 -2 -38 -34 18
-20 48 -24 58 -8 3 6 11 10 17 10 7 0 6 -6 -2 -15 -19 -23 -76 -19 -94 7 -21
29 -20 77 1 100 23 26 78 24 97 -4z m158 5 c22 -20 24 -71 2 -101 -11 -16 -25
-22 -54 -22 -29 0 -43 6 -54 22 -37 52 -8 118 51 118 20 0 45 -7 55 -17z m136
-3 c4 -12 2 -13 -9 -2 -17 16 -56 15 -62 -1 -7 -19 3 -31 37 -42 39 -13 54
-38 37 -59 -18 -21 -75 -21 -92 1 -13 15 -12 16 6 8 11 -4 31 -8 45 -9 39 -2
34 35 -6 46 -44 11 -59 31 -44 58 9 17 19 20 47 18 22 -2 38 -9 41 -18z m54
-35 c6 -70 19 -85 56 -65 23 14 27 23 30 68 5 77 22 63 22 -18 0 -40 -4 -70
-10 -70 -5 0 -10 5 -10 12 0 9 -3 9 -12 0 -20 -20 -65 -14 -82 10 -17 24 -22
118 -7 118 5 0 11 -25 13 -55z m168 43 c0 -9 3 -9 12 0 7 7 18 12 26 12 7 0 3
-9 -12 -22 -19 -17 -26 -34 -28 -66 -3 -72 -18 -58 -18 17 0 41 4 71 10 71 6
0 10 -5 10 -12z m294 -10 c36 -51 5 -118 -54 -118 -38 0 -70 32 -70 70 0 63
90 98 124 48z m280 0 c8 -13 14 -40 14 -60 0 -20 2 -40 5 -45 8 -12 -95 -14
-110 -1 -18 15 -16 55 3 62 9 3 29 6 44 6 36 0 45 13 24 34 -18 19 -45 21 -62
4 -7 -7 -12 -8 -12 -2 0 18 12 24 46 24 24 0 38 -7 48 -22z m388 5 c10 -9 18
-27 18 -40 0 -21 -4 -23 -55 -23 -57 0 -66 -8 -39 -34 18 -19 45 -21 62 -4 13
13 27 5 17 -11 -11 -19 -80 -13 -100 9 -19 21 -16 79 6 106 16 19 68 18 91 -3z
m136 -1 c3 -11 0 -11 -16 -1 -25 16 -52 5 -52 -20 0 -14 9 -23 32 -29 40 -10
57 -34 39 -56 -17 -20 -75 -21 -91 -1 -15 18 -7 19 20 3 15 -9 25 -10 37 -2
29 18 25 32 -12 44 -45 15 -61 42 -39 65 19 19 75 17 82 -3z m322 -52 c0 -40
-4 -70 -10 -70 -6 0 -10 30 -10 70 0 40 4 70 10 70 6 0 10 -30 10 -70z m140
60 c0 -5 -13 -7 -29 -4 -22 5 -32 1 -45 -17 -22 -31 -20 -55 5 -80 16 -16 27
-19 51 -14 21 5 28 4 24 -4 -11 -16 -72 -13 -90 5 -21 20 -20 83 1 106 17 19
83 26 83 8z m140 -5 c0 -9 -18 -35 -41 -60 l-40 -44 38 -6 c62 -11 61 -13 -4
-14 -35 -1 -63 2 -63 7 0 4 20 30 45 59 25 28 45 54 45 57 0 2 -19 7 -42 9
-41 3 -41 4 10 5 41 2 52 -1 52 -13z m342 -2 c22 -20 24 -71 2 -101 -30 -43
-124 -13 -124 40 0 22 18 60 34 70 20 13 69 8 88 -9z m68 5 c0 -9 3 -9 12 0 7
7 24 12 38 12 14 0 31 -5 38 -12 15 -15 17 -132 2 -123 -5 3 -10 30 -10 60 0
45 -3 55 -21 60 -35 11 -59 -20 -59 -77 0 -26 -4 -48 -10 -48 -6 0 -10 30 -10
70 0 40 4 70 10 70 6 0 10 -5 10 -12z m280 0 c0 -9 3 -9 12 0 14 14 57 16 77
3 18 -12 29 -131 12 -131 -7 0 -11 21 -11 53 0 55 -12 77 -41 77 -27 0 -49
-40 -49 -87 0 -24 -4 -43 -10 -43 -6 0 -10 30 -10 70 0 40 4 70 10 70 6 0 10
-5 10 -12z m254 -10 c31 -44 22 -57 -44 -60 -57 -3 -60 -4 -47 -21 14 -20 50
-25 82 -12 18 8 19 7 6 -8 -17 -22 -69 -22 -93 0 -23 20 -24 80 -1 105 23 26
78 24 97 -4z m56 -108 c0 -5 -4 -10 -10 -10 -5 0 -10 5 -10 10 0 6 5 10 10 10
6 0 10 -4 10 -10z m-1392 -152 c18 -18 14 -77 -7 -124 -16 -35 -25 -43 -56
-48 -46 -9 -102 9 -110 35 -12 37 5 118 28 134 26 18 128 20 145 3z m413 2
c11 -6 19 -21 19 -36 0 -34 -44 -119 -72 -138 -49 -35 -138 -10 -138 38 0 30
22 84 50 119 18 23 29 27 71 27 28 0 59 -5 70 -10z m-132 -305 c17 -17 3 -62
-34 -111 -43 -56 -127 -56 -141 1 -9 35 30 111 64 124 32 12 92 5 111 -14z
m-378 5 c27 -15 25 -67 -6 -113 -21 -30 -32 -37 -59 -37 -42 0 -86 33 -86 65
0 30 18 77 33 87 18 11 95 10 118 -2z m-59 -227 c34 -30 17 -103 -29 -126 -59
-30 -125 18 -107 77 18 60 94 87 136 49z m320 -6 c32 -50 -23 -127 -91 -127
-35 0 -41 3 -47 26 -11 44 8 87 46 107 36 18 79 15 92 -6z m-868 -73 c9 -3 18
-24 22 -49 5 -35 11 -45 30 -49 20 -5 24 -13 24 -46 0 -35 -3 -40 -24 -40 -20
0 -25 -7 -33 -50 -6 -27 -7 -50 -3 -50 4 0 36 -27 71 -61 35 -33 82 -72 104
-87 22 -15 49 -35 60 -45 11 -11 29 -23 40 -28 11 -5 40 -20 64 -34 24 -14 47
-22 52 -19 5 3 9 -1 9 -8 1 -16 88 -58 206 -97 89 -30 324 -81 371 -81 l23 0
-1 -502 c0 -277 -4 -523 -8 -548 -21 -110 -42 -201 -64 -275 -13 -44 -26 -87
-28 -95 -2 -8 -7 -17 -10 -20 -3 -3 -23 -40 -43 -83 -20 -42 -52 -102 -71
-132 -20 -30 -33 -55 -30 -55 3 0 -3 -8 -12 -19 -65 -68 -82 -90 -72 -93 7 -2
4 -10 -7 -18 -14 -12 -16 -12 -9 -1 5 10 4 12 -3 7 -7 -4 -12 -13 -12 -21 0
-8 -5 -17 -12 -21 -7 -5 -8 -3 -3 7 5 8 -2 5 -14 -6 -13 -11 -29 -35 -37 -53
-11 -28 -17 -32 -35 -27 -18 6 -21 4 -15 -10 5 -13 2 -16 -9 -11 -10 3 -13 2
-10 -5 10 -15 -14 -39 -32 -32 -12 5 -15 2 -10 -10 3 -9 2 -19 -3 -22 -6 -4
-10 -14 -10 -25 0 -10 -7 -20 -15 -24 -8 -3 -15 -14 -15 -25 0 -31 -21 -70
-41 -76 -11 -4 -26 -13 -34 -22 -11 -11 -45 -17 -112 -22 l-96 -6 -16 -42
c-18 -51 -27 -54 -36 -12 -10 46 -47 59 -95 32 -25 -13 -42 -17 -48 -11 -15
15 -86 28 -92 17 -7 -10 -76 48 -73 61 1 4 -7 6 -17 3 -11 -3 -20 -9 -20 -13
0 -10 -92 -6 -109 4 -6 4 -11 12 -11 18 0 6 -18 27 -41 46 -28 24 -39 41 -36
53 3 11 1 17 -4 13 -5 -3 -9 -1 -9 4 0 6 -17 17 -37 25 -21 9 -32 16 -25 16 7
1 10 6 7 11 -4 6 -11 8 -16 5 -5 -4 -9 1 -9 9 0 9 -7 16 -15 16 -9 0 -21 4
-28 10 -61 49 -87 74 -87 86 0 8 -7 14 -15 14 -8 0 -15 6 -15 13 0 6 -13 20
-30 29 -16 9 -39 36 -51 62 -12 25 -25 46 -30 46 -5 0 -9 8 -9 18 0 10 -8 27
-17 38 -23 26 -38 50 -62 99 -11 22 -29 54 -41 70 -11 17 -20 38 -20 48 0 11
-4 15 -12 11 -6 -4 -8 -3 -4 4 3 6 0 28 -8 49 -28 76 -56 180 -73 273 -16 83
-18 159 -18 602 0 278 3 509 7 513 4 4 42 11 85 15 43 5 85 10 93 13 8 3 42
12 75 22 308 88 417 144 638 328 107 89 107 89 101 126 -9 56 -12 61 -34 61
-17 0 -20 6 -20 38 0 29 5 39 22 47 15 7 23 21 26 45 2 19 8 41 14 47 11 14
46 17 72 7z m490 -99 c57 -57 -8 -136 -86 -104 -22 9 -28 18 -28 43 0 50 23
71 82 75 9 0 23 -6 32 -14z m286 -10 c18 -22 1 -73 -32 -98 -24 -18 -30 -18
-57 -7 -42 17 -49 50 -20 89 18 25 30 31 60 31 20 0 42 -7 49 -15z m249 -335
c0 -8 -4 -24 -8 -35 -5 -12 -3 -30 4 -45 16 -31 4 -66 -25 -75 -12 -4 -19 -9
-16 -12 3 -4 -2 -12 -12 -20 -16 -12 -14 -16 24 -51 93 -85 240 -253 296 -337
33 -49 66 -94 74 -98 11 -6 22 -1 38 16 35 38 66 44 88 17 10 -12 35 -28 56
-35 43 -15 44 -33 6 -78 -13 -16 -24 -33 -24 -39 0 -6 -18 -27 -39 -47 l-40
-37 25 -84 c30 -104 50 -202 58 -295 4 -38 9 -86 12 -105 5 -31 7 -33 19 -17
8 11 26 17 48 17 30 0 39 -5 52 -29 8 -16 24 -32 35 -36 30 -9 50 -34 50 -59
0 -19 -8 -26 -44 -36 -29 -8 -47 -20 -55 -36 -9 -21 -18 -24 -60 -24 -55 0
-55 0 -66 -80 -19 -131 -101 -378 -150 -454 -16 -23 -16 -26 -2 -26 11 0 20
-15 28 -42 6 -24 27 -64 46 -90 28 -39 32 -51 23 -68 -7 -14 -21 -20 -43 -20
-18 0 -42 -7 -55 -15 -23 -17 -47 -10 -71 19 -19 22 -43 6 -93 -62 -23 -31
-90 -105 -149 -163 -79 -78 -105 -110 -98 -120 7 -11 12 -12 28 -2 27 17 43
-4 35 -45 -4 -19 0 -42 10 -63 21 -43 21 -48 -11 -81 -33 -34 -46 -34 -98 -3
-22 14 -48 25 -57 25 -23 0 -58 39 -51 56 3 8 0 14 -7 14 -9 0 -9 4 1 18 15
18 13 17 -36 -21 -5 -4 -34 -25 -63 -46 -33 -24 -48 -41 -40 -44 7 -3 3 -6
-10 -6 -21 -1 -61 -19 -72 -32 -3 -4 -15 -9 -27 -13 -13 -4 -23 -14 -23 -22 0
-8 -7 -14 -15 -14 -9 0 -27 -7 -40 -16 -13 -9 -30 -12 -36 -8 -8 4 -9 3 -5 -4
5 -8 0 -12 -13 -12 -11 0 -55 -12 -98 -26 -43 -14 -114 -34 -157 -44 -88 -21
-111 -39 -122 -100 -8 -39 -59 -100 -85 -100 -27 0 -87 87 -99 145 -5 28 -11
31 -80 47 -102 24 -259 80 -360 129 -56 27 -265 163 -274 178 -4 6 -21 11 -38
11 l-31 0 21 -23 c21 -22 21 -24 5 -39 -10 -8 -30 -18 -45 -22 -14 -3 -40 -17
-56 -31 -38 -32 -60 -32 -95 0 -31 30 -33 44 -11 86 11 22 13 43 9 71 l-7 40
29 -6 c20 -5 34 -2 41 7 9 10 -8 31 -79 96 -83 77 -212 224 -221 253 -3 9 -18
4 -46 -16 -40 -27 -43 -28 -66 -12 -14 9 -39 16 -55 16 -20 0 -34 7 -41 20
-12 22 -11 26 37 88 18 24 33 53 33 64 0 12 8 26 17 33 15 11 15 14 -3 41 -53
77 -127 304 -149 454 -12 80 -11 80 -66 80 -38 0 -51 4 -56 18 -9 23 -23 32
-55 32 -15 0 -30 5 -33 10 -4 7 -338 10 -971 10 l-964 0 0 25 0 25 493 1 c270
1 691 0 934 -1 430 -2 445 -1 513 20 63 20 72 25 77 51 5 28 8 29 58 29 51 0
53 1 59 31 3 17 6 51 6 74 0 48 28 192 59 305 28 98 27 106 -8 113 -19 4 -32
14 -37 29 -4 13 -18 40 -30 60 -32 50 -30 64 8 72 18 3 45 19 61 33 26 26 29
27 55 12 15 -8 28 -25 30 -37 6 -38 33 -22 81 48 92 135 157 214 263 320 l110
110 -42 38 c-42 38 -43 39 -30 76 9 27 9 40 1 50 -16 19 -4 42 29 56 26 11 32
9 69 -21 23 -18 41 -36 41 -41 0 -5 16 -8 36 -6 46 4 67 -20 41 -47 -22 -22
-21 -38 3 -60 39 -35 12 -84 -31 -57 -27 17 -34 16 -92 -24 -116 -79 -291
-273 -380 -420 -43 -71 -44 -80 -16 -110 19 -21 19 -22 2 -40 -10 -9 -18 -20
-18 -23 0 -3 -6 -15 -12 -26 -10 -17 -15 -18 -31 -8 -29 17 -45 -5 -77 -107
-56 -179 -87 -458 -51 -461 6 -1 22 -2 36 -2 27 -2 37 -29 26 -73 -5 -20 -13
-24 -43 -24 l-36 0 6 -74 c12 -139 65 -327 137 -482 49 -106 56 -114 92 -100
35 13 59 0 72 -38 8 -21 6 -29 -9 -40 -19 -13 -18 -15 10 -57 17 -24 91 -106
167 -181 75 -76 131 -138 124 -138 -12 0 -212 197 -261 258 -27 33 -52 43 -42
18 20 -52 261 -306 290 -306 5 0 26 18 47 40 l39 41 33 -17 c18 -9 59 -36 91
-60 33 -24 65 -44 73 -44 8 0 14 -4 14 -9 0 -14 158 -111 180 -111 11 0 20 -5
20 -10 0 -6 11 -8 26 -4 19 5 26 2 30 -12 3 -11 22 -26 42 -35 87 -39 172 -69
211 -74 23 -3 51 -9 61 -15 12 -7 27 -7 45 0 40 15 102 13 108 -4 5 -12 12
-13 39 -3 18 7 35 15 38 18 3 4 16 7 30 7 34 1 204 59 208 72 2 5 8 8 13 4 5
-3 9 0 9 5 0 6 5 11 10 11 6 0 21 9 33 20 12 12 23 16 25 11 4 -13 32 -2 32
13 0 13 41 36 65 36 7 0 15 3 17 8 6 14 67 52 83 52 10 0 13 5 9 12 -5 8 -2 9
9 5 10 -3 17 -3 17 2 0 4 12 13 26 19 14 7 22 17 19 22 -3 6 -1 10 5 10 6 0
36 16 66 35 30 19 57 35 61 35 4 0 22 -14 39 -31 l33 -32 118 119 c66 66 140
151 165 189 45 68 46 70 28 89 -19 20 -17 28 26 85 2 2 15 -4 29 -13 14 -9 29
-14 34 -12 5 3 29 47 54 98 81 164 137 369 137 503 0 62 -1 64 -27 67 -25 3
-28 7 -28 43 0 44 8 55 44 55 l24 0 -6 128 c-7 130 -28 242 -69 367 -22 68
-24 70 -54 68 -27 -2 -34 2 -48 32 -9 19 -21 35 -26 35 -19 0 -9 26 16 41 l25
15 -36 69 c-71 133 -244 338 -342 405 -23 16 -55 38 -72 51 -27 20 -33 21 -61
9 -48 -20 -61 0 -33 49 l22 38 -21 21 c-21 20 -21 22 -4 41 11 12 27 18 44 15
21 -3 38 6 75 41 l49 45 29 -17 c16 -10 29 -24 28 -33z m2234 -1460 l387 0 0
-25 0 -25 -945 0 -945 0 0 25 c0 22 4 24 58 27 31 2 282 2 557 0 275 -1 674
-2 888 -2z m-3059 -2202 c9 -35 8 -38 -14 -38 -16 0 -20 7 -20 30 0 36 25 41
34 8z m-454 -33 c0 -8 -4 -15 -9 -15 -13 0 -22 16 -14 24 11 11 23 6 23 -9z
m235 -419 c23 -9 37 -10 63 0 23 7 87 10 191 7 149 -4 157 -5 177 -28 12 -13
24 -22 25 -20 9 8 7 -58 -1 -80 -9 -24 -14 -25 -89 -25 -44 0 -82 4 -85 9 -3
4 -40 9 -83 10 -79 2 -94 9 -86 42 3 10 0 19 -6 19 -6 0 -11 7 -11 15 0 9 -9
15 -25 15 -30 0 -27 9 -30 -113 -1 -53 -5 -100 -9 -104 -8 -9 -35 27 -36 49 0
9 -10 18 -22 20 -20 3 -24 11 -31 62 -6 39 -5 68 2 83 9 19 8 25 -4 29 -8 4
-15 10 -15 15 0 13 40 10 75 -5z m565 -63 c0 -7 -4 -13 -10 -13 -5 0 -10 12
-10 28 0 21 2 24 10 12 5 -8 10 -21 10 -27z m34 -73 c15 0 17 -3 9 -11 -15
-15 -53 -2 -53 19 0 12 3 13 12 4 7 -7 21 -12 32 -12z m32 -953 c5 -4 24 -113
36 -201 8 -60 7 -80 -2 -86 -21 -13 -1262 9 -1276 23 -3 3 -1 23 5 44 6 22 17
77 25 122 8 46 18 86 21 90 13 13 1178 21 1191 8z"/>
<path d="M3895 9145 c-33 -32 -34 -94 -2 -129 34 -38 60 -41 96 -10 26 21 31
33 31 68 0 82 -73 124 -125 71z"/>
<path d="M6037 9253 c-18 -17 -5 -45 28 -59 47 -19 57 -18 90 10 l28 24 -31
16 c-31 16 -103 22 -115 9z"/>
<path d="M6430 9160 c-38 -38 -27 -50 46 -50 63 0 65 1 59 23 -15 48 -70 62
-105 27z"/>
<path d="M1275 9145 c-51 -50 -22 -155 41 -155 39 0 61 17 74 55 15 46 -1 98
-36 114 -37 16 -52 14 -79 -14z"/>
<path d="M2502 9164 c-12 -8 -22 -24 -22 -35 0 -17 7 -19 65 -19 72 0 78 8 40
45 -28 29 -51 31 -83 9z"/>
<path d="M3476 9044 c-23 -22 -20 -41 9 -60 21 -14 31 -15 51 -5 26 11 45 47
37 69 -7 17 -79 15 -97 -4z"/>
<path d="M4825 9145 c-18 -17 -25 -35 -25 -63 0 -100 110 -129 140 -37 13 40
6 70 -23 103 -27 29 -62 28 -92 -3z"/>
<path d="M6795 9129 c-11 -17 1 -21 15 -4 8 9 8 15 2 15 -6 0 -14 -5 -17 -11z"/>
<path d="M7876 9047 c-27 -20 -15 -64 20 -73 31 -8 76 30 72 61 -4 25 -63 33
-92 12z"/>
<path d="M9224 9052 c-6 -4 -14 -17 -18 -29 -5 -17 -1 -26 19 -39 25 -16 27
-16 53 3 15 11 28 32 30 46 3 25 1 27 -35 27 -21 0 -43 -4 -49 -8z"/>
<path d="M6344 8155 c-12 -18 -14 -31 -7 -52 12 -35 38 -41 48 -11 21 61 22
77 8 82 -25 10 -32 7 -49 -19z"/>
<path d="M6510 8156 c0 -11 10 -16 31 -16 38 0 35 24 -4 28 -19 2 -27 -1 -27
-12z"/>
<path d="M6505 8107 c-17 -13 -17 -15 6 -30 22 -16 25 -16 42 2 34 34 -7 57
-48 28z"/>
<path d="M7097 8162 c-42 -46 3 -112 61 -91 17 7 22 16 22 47 0 21 -5 43 -12
50 -18 18 -53 15 -71 -6z"/>
<path d="M6922 8168 c-19 -19 -14 -73 9 -94 19 -17 23 -17 47 -3 37 20 42 71
10 93 -27 19 -50 20 -66 4z"/>
<path d="M4102 8168 c-20 -20 -15 -81 8 -95 20 -13 49 -8 62 11 12 17 9 71 -4
84 -7 7 -21 12 -33 12 -12 0 -26 -5 -33 -12z"/>
<path d="M4240 8101 c0 -10 7 -24 15 -31 21 -18 65 2 65 30 0 17 -7 20 -40 20
-32 0 -40 -4 -40 -19z"/>
<path d="M4557 8162 c-42 -46 -3 -110 54 -90 24 8 29 16 29 42 0 56 -50 84
-83 48z"/>
<path d="M5081 8113 c-20 -16 -20 -20 -8 -37 13 -18 18 -18 46 -7 35 15 40 35
12 51 -25 13 -25 13 -50 -7z"/>
<path d="M7272 8168 c-26 -26 -13 -38 39 -38 51 0 51 0 37 23 -17 25 -57 34
-76 15z"/>
<path d="M3544 8155 c-20 -30 -12 -70 16 -85 29 -16 56 -4 70 30 26 63 -49
111 -86 55z"/>
<path d="M3706 8164 c-25 -24 -20 -71 9 -90 23 -15 27 -15 50 0 27 18 33 53
15 87 -13 23 -53 25 -74 3z"/>
<path d="M4862 8093 c4 -35 37 -42 62 -14 24 26 13 41 -30 41 -33 0 -35 -2
-32 -27z"/>
<path d="M5326 8164 c-22 -21 -20 -60 4 -84 24 -24 29 -24 58 -4 39 27 23 104
-23 104 -13 0 -31 -7 -39 -16z"/>
<path d="M6192 8168 c-25 -25 -13 -38 33 -38 49 0 50 1 35 31 -12 21 -50 25
-68 7z"/>
<path d="M5256 7884 c-26 -26 -17 -75 17 -94 27 -14 29 -14 48 9 22 26 25 64
7 79 -26 20 -56 23 -72 6z"/>
<path d="M3787 7882 c-10 -10 -17 -32 -17 -49 0 -25 6 -33 31 -44 29 -12 33
-11 50 10 23 28 24 50 3 79 -18 27 -45 28 -67 4z"/>
<path d="M5696 7878 c-23 -32 -20 -54 11 -77 23 -19 29 -20 47 -8 27 18 33 69
11 91 -23 22 -51 20 -69 -6z"/>
<path d="M6294 7832 c-14 -9 0 -52 16 -52 20 0 50 20 50 34 0 22 -43 34 -66
18z"/>
<path d="M3187 7882 c-33 -36 -12 -102 32 -102 47 0 68 77 29 104 -29 21 -41
20 -61 -2z"/>
<path d="M3536 7884 c-26 -26 -18 -34 34 -34 54 0 61 7 32 33 -23 21 -46 22
-66 1z"/>
<path d="M3940 7881 c-15 -30 -14 -31 35 -31 25 0 45 3 45 6 0 20 -24 44 -45
44 -14 0 -29 -8 -35 -19z"/>
<path d="M4097 7882 c-33 -36 -10 -102 35 -102 42 0 63 73 30 103 -24 22 -45
21 -65 -1z"/>
<path d="M4747 7882 c-33 -36 -10 -102 35 -102 22 0 48 33 48 63 0 50 -51 74
-83 39z"/>
<path d="M5037 7833 c-27 -26 19 -67 48 -43 22 18 18 37 -7 44 -29 7 -33 7
-41 -1z"/>
<path d="M5420 7881 c-15 -30 -14 -31 35 -31 49 0 62 20 26 40 -29 15 -49 12
-61 -9z"/>
<path d="M6496 7881 c-25 -28 -17 -72 16 -90 24 -14 28 -14 47 3 37 33 21 106
-23 106 -13 0 -31 -9 -40 -19z"/>
<path d="M7102 7888 c-25 -25 -13 -38 33 -38 33 0 45 4 45 15 0 28 -56 45 -78
23z"/>
<path d="M5020 6504 c-47 -42 -94 -80 -105 -85 -22 -11 -42 -23 -100 -60 -41
-26 -226 -119 -237 -119 -4 0 -19 -5 -35 -12 -15 -6 -32 -12 -38 -13 -5 -2
-50 -14 -100 -28 -49 -14 -105 -28 -123 -32 -18 -4 -36 -13 -39 -21 -3 -8 -9
-11 -15 -8 -7 5 -6 -750 1 -861 3 -39 23 -98 38 -114 10 -10 12 -16 4 -19 -6
-2 -11 -18 -10 -35 1 -29 2 -30 8 -8 5 20 9 11 20 -42 7 -37 17 -67 22 -67 5
0 9 -6 9 -13 0 -7 10 -17 23 -22 12 -6 23 -20 25 -33 4 -23 46 -72 62 -72 6 0
10 -5 10 -11 0 -6 7 -4 15 5 12 12 15 47 15 188 1 156 4 206 26 343 3 22 15
54 25 71 10 17 19 39 19 49 0 10 3 15 7 12 3 -4 15 0 25 10 10 9 18 12 18 7 1
-22 28 55 34 99 4 26 11 45 17 42 9 -6 13 7 10 37 -1 9 3 19 9 23 5 3 10 20
10 36 0 17 4 28 10 24 5 -3 7 0 4 8 -3 8 5 26 18 40 37 40 47 55 42 60 -2 2 2
10 11 17 8 7 15 18 15 24 0 12 63 66 78 66 5 0 20 9 33 21 13 11 36 23 51 26
16 3 28 9 28 13 0 8 137 23 190 21 19 -1 37 -6 38 -11 2 -6 27 -10 56 -10 44
0 60 -5 90 -29 21 -17 43 -28 50 -25 20 8 111 -97 143 -166 30 -63 36 -85 49
-177 4 -24 10 -43 14 -43 5 0 13 -22 20 -50 10 -43 16 -50 46 -60 19 -6 34
-18 34 -26 0 -8 4 -14 9 -14 5 0 18 -17 29 -38 18 -34 19 -52 15 -169 -4 -84
-2 -142 5 -163 8 -20 8 -38 2 -49 -13 -25 3 -126 23 -146 9 -9 17 -21 17 -26
0 -6 12 -9 27 -7 23 3 29 10 41 53 8 27 29 67 47 88 35 40 68 156 66 230 -1
20 2 37 6 37 5 0 6 25 5 55 -2 31 1 61 6 68 12 15 17 757 5 757 -67 1 -326 77
-430 127 -103 50 -257 141 -295 175 -20 18 -52 44 -69 58 -18 14 -42 35 -54
48 -12 12 -26 22 -31 21 -5 0 -47 -34 -94 -75z m-543 -1166 c-3 -8 -6 -5 -6 6
-1 11 2 17 5 13 3 -3 4 -12 1 -19z"/>
<path d="M5809 6257 c5 -5 19 -7 32 -5 20 3 19 5 -9 9 -20 3 -29 2 -23 -4z"/>
<path d="M5278 6033 c7 -3 16 -2 19 1 4 3 -2 6 -13 5 -11 0 -14 -3 -6 -6z"/>
<path d="M5380 5982 c0 -5 9 -17 20 -27 11 -10 20 -13 20 -8 0 6 -7 14 -16 17
-8 3 -12 10 -9 16 3 5 1 10 -4 10 -6 0 -11 -4 -11 -8z"/>
<path d="M5436 5927 c3 -10 9 -15 12 -12 3 3 0 11 -7 18 -10 9 -11 8 -5 -6z"/>
<path d="M5131 5836 c-12 -15 -55 -24 -123 -28 -26 -1 -38 -7 -39 -18 -3 -31
-4 -36 -25 -58 -20 -22 -23 -72 -4 -72 5 0 12 -9 15 -20 3 -11 15 -20 26 -20
10 0 19 -4 19 -10 0 -5 9 -10 20 -10 11 0 20 -4 20 -10 0 -5 9 -10 20 -10 11
0 20 4 20 9 0 4 25 11 55 14 30 3 62 13 71 21 8 9 24 16 35 16 20 0 22 8 22
83 0 20 4 37 8 37 5 0 9 5 9 10 0 6 -8 10 -18 10 -22 0 -62 32 -62 49 0 6 -6
11 -14 11 -8 0 -21 2 -29 5 -7 3 -19 -1 -26 -9z"/>
<path d="M5493 5040 c4 -63 2 -80 -8 -80 -8 0 -17 -9 -20 -20 -3 -11 -11 -20
-16 -20 -5 0 -9 -9 -9 -20 0 -11 -7 -20 -15 -20 -8 0 -15 -9 -15 -19 0 -11 -5
-23 -10 -26 -6 -4 -10 -12 -9 -18 1 -7 1 -31 0 -54 -1 -36 -4 -43 -21 -43 -22
0 -40 -34 -40 -76 0 -13 -4 -24 -10 -24 -5 0 -10 -8 -10 -17 -1 -25 -24 -53
-44 -53 -9 0 -16 -4 -16 -8 0 -13 -84 -33 -143 -34 -47 -1 -60 2 -75 20 -11
12 -29 22 -41 22 -24 0 -51 21 -51 39 0 6 -3 11 -7 11 -9 0 -33 49 -33 67 0 7
-9 13 -20 13 -15 0 -20 7 -20 25 0 14 -4 25 -10 25 -5 0 -10 7 -10 15 0 8 -9
15 -20 15 -17 0 -20 7 -20 40 0 22 -4 40 -10 40 -5 0 -10 9 -10 20 0 17 -7 20
-51 20 l-52 0 6 -59 c4 -35 3 -61 -3 -63 -14 -5 -24 -198 -12 -230 6 -15 27
-34 47 -44 22 -10 43 -30 53 -51 9 -19 23 -33 33 -33 10 0 30 -11 46 -24 37
-30 55 -40 144 -73 92 -34 224 -40 256 -10 11 9 33 17 49 17 16 0 38 6 49 14
11 7 33 16 48 20 19 4 27 12 24 20 -4 9 4 16 22 19 16 4 37 20 51 41 14 19 27
33 30 31 12 -7 25 11 53 68 24 52 27 68 27 167 0 67 -4 110 -10 110 -5 0 -10
18 -10 40 0 33 -3 40 -20 40 -17 0 -20 7 -20 40 0 22 -4 40 -10 40 -6 0 -10
33 -10 80 0 68 -3 80 -16 80 -15 0 -16 -10 -11 -80z"/>
<path d="M5731 5074 c0 -11 3 -14 6 -6 3 7 2 16 -1 19 -3 4 -6 -2 -5 -13z"/>
<path d="M4323 4925 c0 -8 4 -15 9 -15 4 0 8 4 8 9 0 6 -4 12 -8 15 -5 3 -9
-1 -9 -9z"/>
<path d="M5108 4523 c7 -3 16 -2 19 1 4 3 -2 6 -13 5 -11 0 -14 -3 -6 -6z"/>
<path d="M6336 4205 c-9 -13 -73 -83 -143 -155 -69 -72 -124 -132 -122 -135 8
-8 114 89 189 173 81 90 118 142 102 142 -5 0 -17 -11 -26 -25z"/>
<path d="M5000 3530 c0 -7 9 -14 20 -17 11 -3 20 -10 20 -15 0 -5 4 -7 9 -4 5
4 8 14 7 24 -3 19 -56 31 -56 12z"/>
<path d="M5175 3520 c-7 -12 2 -12 30 0 19 8 19 9 -2 9 -12 1 -25 -3 -28 -9z"/>
</g>
</svg>
